<svg width="15" height="15" viewBox="0 0 15 15" fill="none" xmlns="http://www.w3.org/2000/svg">
<rect x="0.5" y="0.5" width="14" height="14" rx="7" fill="#FD4848" stroke="white"/>
<path d="M5.744 10L5.48 9.344L7.192 7.416C7.30933 7.28267 7.43467 7.13067 7.568 6.96C7.70667 6.78933 7.824 6.61333 7.92 6.432C8.016 6.25067 8.064 6.08267 8.064 5.928C8.064 5.672 7.98933 5.47467 7.84 5.336C7.69067 5.192 7.48533 5.12 7.224 5.12C6.99467 5.12 6.77067 5.22133 6.552 5.424C6.33333 5.62133 6.17333 5.88533 6.072 6.216L5.408 5.8C5.54133 5.336 5.77867 4.97333 6.12 4.712C6.46667 4.45067 6.86933 4.32 7.328 4.32C7.64267 4.32 7.92267 4.38667 8.168 4.52C8.41333 4.648 8.60533 4.82933 8.744 5.064C8.88267 5.29333 8.952 5.56 8.952 5.864C8.952 6.17333 8.86133 6.50133 8.68 6.848C8.504 7.18933 8.21333 7.58133 7.808 8.024L6.76 9.168H9.128V10H5.744Z" fill="white"/>
</svg>
